<svg version="1.1" id="Layer_1" xmlns="http://www.w3.org/2000/svg" xmlns:xlink="http://www.w3.org/1999/xlink" x="0px" y="0px" viewBox="0 0 200 200" style="enable-background:new 0 0 512 512;" xml:space="preserve" width="200" height="200"><path style="fill:#36A1CB;" d="M39.973 140.361c-13.096 4.385 -22.536 16.743 -22.536 31.314v20.114c0 2.791 2.262 5.053 5.053 5.053h17.483V140.361z"/><path style="fill:#2B80AF;" d="M28.608 192.726v-20.114c0 -11.203 5.584 -21.093 14.115 -27.061v-4.253c-13.096 4.385 -22.536 16.743 -22.536 31.314v20.114c0 2.791 2.262 5.053 5.053 5.053h8.421C30.871 197.779 28.608 195.517 28.608 192.726z"/><path style="fill:#F28838;" d="M111.171 50.078V8.744c0 -3.085 -2.501 -5.586 -5.586 -5.586h-11.171c-3.085 0 -5.586 2.501 -5.586 5.586v41.334H111.171z"/><path style="fill:#EF711D;" d="M104.434 4.937h-8.113c-3.085 0 -5.586 2.501 -5.586 5.586v41.334h8.113V10.523C98.848 7.438 101.35 4.937 104.434 4.937z"/><path style="fill:#FFB92E;" d="M88.828 11.95c-17.527 4.579 -30.807 19.662 -32.688 38.128h32.688L88.828 11.95L88.828 11.95z"/><path style="fill:#FFAB31;" d="M90.737 17.118v-3.389c-17.527 4.579 -30.807 19.662 -32.688 38.128h8.87C68.467 36.662 77.737 23.764 90.737 17.118z"/><g><path style="fill:#8BD8F7;" points="255.999,399.139 290.987,423.383 333.846,354.945 300.193,342.344 	" d="M100 155.914L113.667 165.384L130.409 138.65L117.263 133.728Z"/><path style="fill:#8BD8F7;" points="255.971,399.139 220.983,423.383 178.124,354.945 211.778,342.344 	" d="M99.989 155.914L86.321 165.384L69.58 138.65L82.726 133.728Z"/></g><g><path style="fill:#36A1CB;" d="M160.005 140.355v56.488h17.504c2.791 0 5.053 -2.262 5.053 -5.053V171.676C182.562 157.097 173.111 144.733 160.005 140.355z"/><path style="fill:#36A1CB;" d="M130.468 196.842h11.249V138.78c0 -0.044 0.005 -0.086 0.007 -0.13h-11.315l-16.742 26.734l-13.667 -9.47l-0.048 -0.048l0.037 0.048l-13.667 9.47l-16.742 -26.734h-11.325c0.001 0.043 0.007 0.086 0.007 0.13v58.061h60.839"/></g><path style="fill:#FFB92E;" points="149.175,503.916 149.175,469.405 362.823,469.405 362.823,503.916 " d="M58.271 196.842L58.271 183.361L141.728 183.361L141.728 196.842"/><g><path style="fill:#7C7A75;" d="M148.345 80.598v-18.069h-9.992v9.514C143.408 72.043 147.596 75.752 148.345 80.598z"/><path style="fill:#7C7A75;" d="M61.646 72.043v-9.514h-10.112v19.625C51.534 76.57 56.062 72.043 61.646 72.043z"/></g><g><path style="fill:#E2AF7D;" d="M61.646 72.043c-5.585 0 -10.112 4.527 -10.112 10.112s4.527 10.112 10.112 10.112V72.043z"/><path style="fill:#E2AF7D;" d="M138.353 72.043c5.585 0 10.112 4.527 10.112 10.112s-4.527 10.112 -10.112 10.112V72.043z"/><path style="fill:#E2AF7D;" d="M115.996 126.062c-2.984 0.928 -6.155 1.431 -9.445 1.431h0H93.449h0c-3.29 0 -6.461 -0.503 -9.445 -1.431c-0.427 -0.133 -0.849 -0.274 -1.267 -0.423v8.09l17.263 22.186l17.263 -22.186v-8.09C116.844 125.788 116.421 125.929 115.996 126.062z"/></g><path style="fill:#F2CB9C;" d="M112.003 62.529h-24.007h-26.35v33.162c0 17.564 14.238 31.802 31.802 31.802h13.102c17.564 0 31.802 -14.238 31.802 -31.802v-33.162L112.003 62.529L112.003 62.529z"/><g><path style="fill:#FFB92E;" d="M111.171 50.078h32.687c-1.88 -18.465 -15.161 -33.548 -32.687 -38.128L111.171 50.078L111.171 50.078z"/><path style="fill:#FFB92E;" d="M160.005 196.842V138.78c0 -2.79 -2.262 -5.053 -5.053 -5.053h-8.182c-2.79 0 -5.053 2.262 -5.053 5.053v58.061H160.005z"/><path style="fill:#FFB92E;" d="M58.261 196.842V138.78c0 -2.79 -2.262 -5.053 -5.053 -5.053h-8.183c-2.79 0 -5.053 2.262 -5.053 5.053v58.061H58.261z"/></g><g><path style="fill:#F28838;" d="M150.872 56.984v-1.362c0 -3.062 -2.482 -5.545 -5.545 -5.545h-33.324h-24.007h-33.324c-3.063 0 -5.544 2.482 -5.544 5.545v1.362c0 3.062 2.482 5.545 5.544 5.545h33.324h24.007h33.324C148.389 62.529 150.872 60.046 150.872 56.984z"/><path x="102.334" y="409.923" style="fill:#F28838;" width="46.813" height="93.992" d="M39.974 160.126H58.261V196.842H39.974V160.126z"/><path x="362.796" y="409.923" style="fill:#F28838;" width="46.813" height="93.992" d="M141.717 160.126H160.004V196.842H141.717V160.126z"/></g><path style="fill:#DB995D;" d="M94.329 136.729v-5.416v-2.968c-2.474 -0.177 -4.869 -0.636 -7.154 -1.346c-0.427 -0.133 -0.849 -0.274 -1.267 -0.423v8.09l8.421 10.822V136.729z"/><path style="fill:#EDBD88;" d="M72.013 96.627v-33.162H63.555v33.162c0 17.564 14.238 31.802 31.802 31.802h8.459C86.252 128.429 72.013 114.191 72.013 96.627z"/><path style="fill:#EF9A1D;" d="M46.934 134.664c-2.79 0 -5.053 2.262 -5.053 5.053v22.693h8.421v-22.693c0 -2.75 2.199 -4.983 4.934 -5.046c-0.04 -0.001 -0.079 -0.006 -0.119 -0.006H46.934z"/><path x="107.217" y="412.316" style="fill:#EF711D;" width="21.558" height="93.992" d="M41.882 161.061H50.303V197.777H41.882V161.061z"/><path style="fill:#EF9A1D;" d="M148.678 134.664c-2.79 0 -5.053 2.262 -5.053 5.053v23.918h8.421v-23.918c0 -2.75 2.199 -4.983 4.934 -5.046c-0.04 -0.001 -0.079 -0.006 -0.119 -0.006H148.678z"/><g><path x="367.679" y="412.316" style="fill:#EF711D;" width="21.558" height="93.992" d="M143.625 161.061H152.046V197.777H143.625V161.061z"/><path style="fill:#EF711D;" d="M60.428 56.984v-1.362c0 -3.062 2.482 -5.545 5.544 -5.545h-8.113c-3.062 0 -5.544 2.482 -5.544 5.545v1.362c0 3.062 2.482 5.545 5.544 5.545h8.113C62.91 62.529 60.428 60.046 60.428 56.984z"/></g><path style="fill:#231F20;" d="M163.131 138.151c-0.323 -4.233 -3.864 -7.581 -8.179 -7.581h-8.183c-3.358 0 -6.248 2.029 -7.518 4.923H130.98l-10.56 -3.954v-3.764c12.395 -5.38 21.09 -17.733 21.09 -32.084v-0.65c5.797 -1.421 10.112 -6.658 10.112 -12.887c0 -0.595 -0.043 -1.18 -0.12 -1.755v-17.291c1.561 -1.573 2.527 -3.737 2.527 -6.123v-1.362c0 -4.355 -3.218 -7.961 -7.399 -8.594c-1.632 -10.074 -6.504 -19.191 -13.579 -26.138v-1.959c0 -1.745 -1.413 -3.158 -3.158 -3.158c-0.762 0 -1.461 0.27 -2.006 0.719c-4.062 -2.984 -8.627 -5.336 -13.559 -6.906v-0.843C114.329 3.922 110.407 0 105.585 0h-11.171c-4.821 0 -8.744 3.922 -8.744 8.744v0.843c-4.932 1.57 -9.497 3.922 -13.559 6.906c-0.545 -0.449 -1.244 -0.719 -2.006 -0.719c-1.745 0 -3.158 1.413 -3.158 3.158v1.959c-7.075 6.947 -11.947 16.064 -13.579 26.138c-4.18 0.632 -7.398 4.239 -7.398 8.594v1.362c0 2.322 0.92 4.429 2.407 5.991v19.178c0 6.229 4.315 11.466 10.112 12.887v0.65c0 14.351 8.694 26.704 21.09 32.084v3.76l-10.57 3.958h-8.282c-1.271 -2.894 -4.161 -4.923 -7.518 -4.923h-8.183c-4.318 0 -7.859 3.352 -8.179 7.589c-13.586 5.509 -22.568 18.7 -22.568 33.516v20.114c0 4.527 3.683 8.211 8.211 8.211h17.483h18.288h60.839c1.745 0 3.158 -1.413 3.158 -3.158s-1.413 -3.158 -3.158 -3.158H61.429v-7.165h77.13v7.165h-8.091c-1.745 0 -3.158 1.413 -3.158 3.158s1.413 3.158 3.158 3.158h11.249h18.288h17.504c4.527 0 8.211 -3.683 8.211 -8.211v-20.114C185.72 156.849 176.73 143.654 163.131 138.151zM146.77 136.886h8.183c1.045 0 1.895 0.85 1.895 1.895v1.574v16.612H144.875v-18.106c0.003 -0.04 0.004 -0.08 0.005 -0.121c0 -0.004 0 -0.007 0 -0.01C144.907 137.709 145.742 136.886 146.77 136.886zM156.847 193.684h-11.961v-10.323c0 -0.071 -0.006 -0.142 -0.011 -0.212v-19.867h11.972v30.402H156.847zM74.309 140.252l7.351 -2.752l13.788 17.72l-8.205 5.686L74.309 140.252zM104.542 155.219l13.788 -17.72l7.351 2.752l-12.934 20.653L104.542 155.219zM145.187 65.687v5.067c-1.129 -0.673 -2.365 -1.182 -3.676 -1.497v-3.57H145.187zM141.511 88.348V75.977c1.205 0.621 2.22 1.58 2.894 2.763c0.003 0.005 0.005 0.009 0.008 0.014c0.193 0.34 0.356 0.698 0.49 1.071c0.017 0.048 0.032 0.096 0.048 0.144c0.043 0.129 0.082 0.26 0.118 0.393c0.017 0.064 0.034 0.129 0.049 0.194c0.032 0.136 0.059 0.273 0.083 0.412c0.067 0.387 0.106 0.783 0.106 1.188C145.307 84.852 143.762 87.196 141.511 88.348zM140.209 46.92h-7.157V30.502C136.572 35.319 139.061 40.908 140.209 46.92zM126.736 23.638v23.282h-12.407V16.259C118.925 17.979 123.112 20.5 126.736 23.638zM91.986 8.744c0 -1.339 1.089 -2.428 2.428 -2.428h11.171c1.339 0 2.428 1.089 2.428 2.428v3.206v34.97h-16.027V11.95v-3.206H91.986zM85.67 46.92h-12.407V23.638c3.625 -3.138 7.812 -5.659 12.407 -7.379V46.92zM66.947 30.502v16.417h-7.157C60.938 40.908 63.427 35.319 66.947 30.502zM52.285 55.622c0 -1.316 1.07 -2.386 2.386 -2.386h1.469h32.688h22.343h32.687h1.469c1.316 0 2.387 1.071 2.387 2.386v1.362c0 1.316 -1.071 2.386 -2.387 2.386h-6.974H61.646H54.672c-1.316 0 -2.386 -1.071 -2.386 -2.386v-1.362H52.285zM58.489 69.264c-0.02 0.005 -0.038 0.012 -0.058 0.017c-0.294 0.073 -0.584 0.157 -0.87 0.25c-0.061 0.02 -0.122 0.041 -0.183 0.063c-0.279 0.095 -0.555 0.197 -0.825 0.309c-0.016 0.007 -0.032 0.012 -0.047 0.018c-0.282 0.119 -0.557 0.25 -0.828 0.387c-0.059 0.03 -0.118 0.059 -0.175 0.09c-0.264 0.139 -0.525 0.284 -0.778 0.44c-0.01 0.006 -0.021 0.011 -0.032 0.018v-5.17h3.796v3.578H58.489zM54.693 82.154c0 -0.214 0.013 -0.425 0.032 -0.634c0.005 -0.057 0.012 -0.113 0.018 -0.17c0.02 -0.172 0.046 -0.342 0.079 -0.51c0.007 -0.038 0.013 -0.077 0.021 -0.114c0.042 -0.2 0.093 -0.396 0.152 -0.589c0.014 -0.046 0.03 -0.092 0.045 -0.138c0.051 -0.155 0.107 -0.308 0.168 -0.458c0.019 -0.047 0.037 -0.094 0.057 -0.14c0.08 -0.184 0.166 -0.364 0.261 -0.54c0.013 -0.025 0.029 -0.049 0.043 -0.074c0.085 -0.152 0.175 -0.3 0.271 -0.445c0.029 -0.045 0.059 -0.09 0.09 -0.134c0.105 -0.152 0.215 -0.3 0.331 -0.443c0.01 -0.012 0.018 -0.025 0.028 -0.036c0.127 -0.153 0.262 -0.299 0.401 -0.441c0.036 -0.037 0.073 -0.072 0.11 -0.108c0.117 -0.114 0.237 -0.223 0.361 -0.328c0.032 -0.027 0.063 -0.055 0.095 -0.082c0.153 -0.125 0.312 -0.244 0.476 -0.356c0.034 -0.023 0.07 -0.045 0.105 -0.068c0.136 -0.09 0.277 -0.175 0.42 -0.255c0.045 -0.025 0.089 -0.05 0.135 -0.075c0.032 -0.017 0.066 -0.031 0.098 -0.047v12.382C56.237 87.196 54.693 84.852 54.693 82.154zM64.804 95.691V92.266v-20.223v-6.356h70.391v6.356v20.223v3.425c0 13.283 -9.09 24.481 -21.375 27.707c-0.114 0.03 -0.229 0.057 -0.344 0.086c-0.309 0.077 -0.619 0.148 -0.931 0.216c-0.129 0.028 -0.258 0.055 -0.388 0.081c-0.371 0.074 -0.745 0.141 -1.122 0.201c-0.052 0.008 -0.102 0.018 -0.153 0.026c-0.422 0.064 -0.847 0.117 -1.275 0.163c-0.127 0.014 -0.254 0.024 -0.38 0.036c-0.321 0.03 -0.643 0.055 -0.967 0.074c-0.13 0.007 -0.261 0.016 -0.392 0.022c-0.437 0.02 -0.876 0.033 -1.318 0.033h-13.102c-0.442 0 -0.88 -0.014 -1.318 -0.033c-0.131 -0.006 -0.262 -0.014 -0.393 -0.022c-0.323 -0.019 -0.645 -0.044 -0.964 -0.074c-0.128 -0.012 -0.255 -0.022 -0.383 -0.036c-0.427 -0.045 -0.852 -0.098 -1.272 -0.162c-0.054 -0.009 -0.108 -0.019 -0.162 -0.028c-0.373 -0.059 -0.745 -0.126 -1.113 -0.199c-0.131 -0.026 -0.262 -0.054 -0.393 -0.082c-0.31 -0.066 -0.618 -0.137 -0.925 -0.214c-0.116 -0.029 -0.232 -0.056 -0.348 -0.087C73.893 120.171 64.804 108.973 64.804 95.691zM86.553 129.964c0.48 0.096 0.962 0.183 1.445 0.259c0.099 0.016 0.2 0.03 0.299 0.045c0.496 0.074 0.993 0.138 1.492 0.19c0.081 0.009 0.162 0.015 0.243 0.023c0.524 0.051 1.05 0.093 1.577 0.12c0.047 0.002 0.094 0.004 0.141 0.006c0.564 0.027 1.13 0.043 1.697 0.043h0h0h13.101h0c0.568 0 1.134 -0.016 1.699 -0.043c0.046 -0.002 0.092 -0.004 0.139 -0.005c0.529 -0.028 1.056 -0.07 1.582 -0.121c0.079 -0.007 0.158 -0.014 0.237 -0.023c0.502 -0.053 1.001 -0.117 1.499 -0.191c0.097 -0.014 0.194 -0.029 0.291 -0.044c0.486 -0.077 0.971 -0.163 1.453 -0.26c0.097 -0.02 0.195 -0.04 0.291 -0.06c0.121 -0.025 0.243 -0.048 0.364 -0.075v2.816l-14.105 18.128l-14.106 -18.128v-2.816c0.12 0.027 0.24 0.049 0.36 0.075C86.354 129.923 86.453 129.944 86.553 129.964zM43.131 138.78c0 -1.045 0.85 -1.895 1.895 -1.895h8.183c1.027 0 1.862 0.823 1.89 1.844c0 0.004 0 0.007 0 0.01c0.001 0.04 0.003 0.079 0.005 0.12v18.106h-11.972v-16.605v-1.581H43.131zM20.595 191.789v-20.114c0 -11.332 6.364 -21.518 16.22 -26.57v15.018v33.561H22.489C21.445 193.684 20.595 192.834 20.595 191.789zM43.131 163.282h11.972v30.402h-11.972C43.131 193.684 43.131 163.282 43.131 163.282zM61.419 180.204v-20.079V141.809h6.413l15.814 25.252c0.458 0.731 1.195 1.243 2.041 1.417c0.211 0.043 0.424 0.064 0.636 0.064c0.001 0 0.002 0 0.004 0c0.14 0 0.28 -0.013 0.418 -0.032c0.036 -0.005 0.072 -0.011 0.108 -0.016c0.137 -0.023 0.273 -0.053 0.406 -0.093c0.002 0 0.003 -0.001 0.005 -0.001c0.135 -0.042 0.265 -0.096 0.394 -0.156c0.032 -0.015 0.064 -0.03 0.095 -0.046c0.127 -0.064 0.252 -0.135 0.37 -0.217l8.711 -6.036v18.26L61.419 180.204L61.419 180.204zM103.147 180.204v-18.267l8.721 6.043c0.119 0.082 0.243 0.152 0.371 0.217c0.032 0.016 0.063 0.031 0.095 0.046c0.129 0.06 0.259 0.114 0.394 0.156c0.001 0 0.003 0.001 0.005 0.001c0.133 0.041 0.269 0.07 0.406 0.093c0.036 0.006 0.071 0.012 0.108 0.016c0.138 0.018 0.277 0.032 0.418 0.032c0.001 0 0.002 0 0.004 0c0.212 0 0.425 -0.021 0.636 -0.064c0.845 -0.174 1.583 -0.686 2.041 -1.417l15.814 -25.252h6.402v18.316v20.079h-35.413V180.204zM179.404 191.789c0 1.045 -0.85 1.895 -1.895 1.895h-14.346v-33.56v-15.029c9.869 5.048 16.241 15.238 16.241 26.58V191.789z"/></svg>