<svg version="1.1" id="Layer_1" xmlns="http://www.w3.org/2000/svg" xmlns:xlink="http://www.w3.org/1999/xlink" x="0px" y="0px" viewBox="0 0 200 200" style="enable-background:new 0 0 512 512;" xml:space="preserve" width="200" height="200"><path style="fill:#273B7A;" cx="256" cy="256" r="256" d="M200 100A100 100 0 0 1 100 200A100 100 0 0 1 0 100A100 100 0 0 1 200 100z"/><path style="fill:#121149;" d="M196.389 126.7L120.455 50.766l-12.711 -4.301l-17.733 1.684l-12.234 12.963v34.175l-9.324 69.032l35.594 35.594C148.24 198.152 185.052 167.718 196.389 126.7z"/><path style="fill:#FFC61B;" d="M77.778 114.815c-2.045 0 -3.704 -1.659 -3.704 -3.704V66.667c0 -14.296 11.63 -25.926 25.926 -25.926s25.926 11.63 25.926 25.926c0 2.045 -1.659 3.704 -3.704 3.704s-3.704 -1.659 -3.704 -3.704c0 -10.211 -8.308 -18.518 -18.518 -18.518s-18.518 8.308 -18.518 18.518v44.445C81.482 113.156 79.823 114.815 77.778 114.815z"/><path style="fill:#EAA22F;" d="M100 40.741c-0.075 0 -0.15 0.005 -0.224 0.005v7.407c0.075 -0.001 0.149 -0.005 0.224 -0.005c10.211 0 18.518 8.308 18.518 18.518c0 2.045 1.659 3.704 3.704 3.704s3.704 -1.659 3.704 -3.704C125.926 52.371 114.296 40.741 100 40.741z"/><path style="fill:#FF5419;" d="M126.318 166.667H73.681c-3.874 0 -7.014 -3.141 -7.014 -7.015V107.014c0 -3.874 3.141 -7.015 7.014 -7.015h52.638c3.874 0 7.015 3.141 7.015 7.015v52.638C133.333 163.526 130.193 166.667 126.318 166.667z"/><path style="fill:#C92F00;" d="M126.318 100h-26.543v66.667h26.543c3.874 0 7.015 -3.141 7.015 -7.015V107.014C133.333 103.141 130.193 100 126.318 100z"/><path style="fill:#273B7A;" d="M107.744 126.974c0 -4.568 -3.955 -8.212 -8.628 -7.695c-3.58 0.396 -6.473 3.333 -6.822 6.918c-0.311 3.187 1.314 6.018 3.834 7.477v9.219c0 2.139 1.733 3.872 3.872 3.872l0 0c2.139 0 3.872 -1.733 3.872 -3.872v-9.219C106.184 132.333 107.744 129.838 107.744 126.974z"/><path style="fill:#121149;" d="M99.776 119.241v27.512c0.075 0.004 0.149 0.011 0.224 0.011c2.139 0 3.872 -1.733 3.872 -3.872v-9.219c2.313 -1.339 3.872 -3.835 3.872 -6.7C107.744 122.622 104.154 119.118 99.776 119.241z"/></svg>