<svg version="1.1" id="Layer_1" xmlns="http://www.w3.org/2000/svg" xmlns:xlink="http://www.w3.org/1999/xlink" x="0px" y="0px" viewBox="0 0 200 200" style="enable-background:new 0 0 512.853 512.853;" xml:space="preserve" width="200" height="200"><g transform="translate(1 1)"><g><path style="fill:#FFE100;" d="M191.291 164.502H7.597c-2.662 0 -4.659 -1.997 -4.659 -4.659v-30.948c0 -2.329 1.997 -4.326 4.659 -4.326h184.027c2.662 0 4.659 1.997 4.659 4.659v30.948C195.95 162.505 193.953 164.502 191.291 164.502"/><path style="fill:#FFE100;" points="417.133,20.76 92.867,20.76 41.667,20.76 41.667,71.96 41.667,268.227 92.867,268.227 
			92.867,71.96 417.133,71.96 417.133,268.227 468.333,268.227 468.333,71.96 468.333,20.76 		" d="M162.672 8.096L36.216 8.096L16.249 8.096L16.249 28.063L16.249 104.602L36.216 104.602L36.216 28.063L162.672 28.063L162.672 104.602L182.638 104.602L182.638 28.063L182.638 8.096Z"/></g><g><path style="fill:#FDCC00;" points="33.133,490.093 84.333,490.093 84.333,421.827 33.133,421.827 		" d="M12.921 191.124L32.888 191.124L32.888 164.502L12.921 164.502Z"/><path style="fill:#FDCC00;" points="425.667,490.093 476.867,490.093 476.867,421.827 425.667,421.827 		" d="M166 191.124L185.966 191.124L185.966 164.502L166 164.502Z"/><path style="fill:#FDCC00;" d="M189.294 124.569H9.593v-14.975c0 -2.662 2.329 -4.992 4.992 -4.992h169.717c2.662 0 4.992 2.329 4.992 4.992V124.569z"/></g><g><path style="fill:#FFA800;" d="M191.291 124.569h-6.656c2.662 0 4.659 1.997 4.659 4.659v30.948c0 2.662 -1.997 4.659 -4.659 4.659h6.656c2.662 0 4.659 -1.997 4.659 -4.659v-30.948C195.95 126.565 193.953 124.569 191.291 124.569"/><path style="fill:#FFA800;" points="451.267,20.76 451.267,71.96 451.267,268.227 468.333,268.227 468.333,71.96 
			468.333,20.76 		" d="M175.983 8.096L175.983 28.063L175.983 104.602L182.638 104.602L182.638 28.063L182.638 8.096Z"/><path style="fill:#FFA800;" points="459.8,490.093 476.867,490.093 476.867,421.827 459.8,421.827 		" d="M179.311 191.124L185.966 191.124L185.966 164.502L179.311 164.502Z"/><path style="fill:#FFA800;" d="M184.302 104.602h-6.656c2.662 0 4.992 2.329 4.992 4.992v14.975H189.294v-14.975C189.294 106.931 186.965 104.602 184.302 104.602"/></g><g><path style="fill:#FFFFFF;" d="M7.597 124.569h6.656c-2.662 0 -4.659 1.997 -4.659 4.659v30.948c0 2.329 1.997 4.326 4.659 4.326H7.597c-2.662 0 -4.659 -1.997 -4.659 -4.659v-30.948C2.938 126.565 4.934 124.569 7.597 124.569"/><path style="fill:#FFFFFF;" points="58.733,20.76 58.733,71.96 58.733,268.227 41.667,268.227 41.667,71.96 41.667,20.76 		" d="M22.904 8.096L22.904 28.063L22.904 104.602L16.249 104.602L16.249 28.063L16.249 8.096Z"/><path style="fill:#FFFFFF;" points="33.133,490.093 50.2,490.093 50.2,421.827 33.133,421.827 		" d="M12.921 191.124L19.577 191.124L19.577 164.502L12.921 164.502Z"/><path style="fill:#FFFFFF;" d="M14.585 104.602h6.656c-2.662 0 -4.992 2.329 -4.992 4.992v14.975H9.593v-14.975C9.593 106.931 11.923 104.602 14.585 104.602"/></g><path style="fill:#63D3FD;" points="195.267,157.293 314.733,157.293 314.733,71.96 195.267,71.96 	" d="M76.149 61.34L122.738 61.34L122.738 28.063L76.149 28.063Z"/><g><path style="fill:#FDCC00;" points="195.267,268.227 314.733,268.227 314.733,225.56 195.267,225.56 		" d="M76.149 104.602L122.738 104.602L122.738 87.963L76.149 87.963Z"/><path style="fill:#FDCC00;" points="229.4,191.427 280.6,191.427 280.6,157.293 229.4,157.293 		" d="M89.46 74.652L109.427 74.652L109.427 61.34L89.46 61.34Z"/></g><g><path style="fill:#63D3FD;" d="M39.543 144.535c0 3.661 -2.995 6.656 -6.656 6.656s-6.656 -2.995 -6.656 -6.656c0 -3.661 2.995 -6.656 6.656 -6.656S39.543 140.875 39.543 144.535"/><path style="fill:#63D3FD;" d="M66.166 144.535c0 3.661 -2.995 6.656 -6.656 6.656s-6.656 -2.995 -6.656 -6.656c0 -3.661 2.995 -6.656 6.656 -6.656S66.166 140.875 66.166 144.535"/><path style="fill:#63D3FD;" d="M92.788 144.535c0 3.661 -2.995 6.656 -6.656 6.656c-3.661 0 -6.656 -2.995 -6.656 -6.656c0 -3.661 2.995 -6.656 6.656 -6.656C89.793 137.88 92.788 140.875 92.788 144.535"/><path style="fill:#63D3FD;" d="M119.41 144.535c0 3.661 -2.995 6.656 -6.656 6.656c-3.661 0 -6.656 -2.995 -6.656 -6.656c0 -3.661 2.995 -6.656 6.656 -6.656C116.415 137.88 119.41 140.875 119.41 144.535"/><path style="fill:#63D3FD;" d="M146.033 144.535c0 3.661 -2.995 6.656 -6.656 6.656s-6.656 -2.995 -6.656 -6.656c0 -3.661 2.995 -6.656 6.656 -6.656S146.033 140.875 146.033 144.535"/><path style="fill:#63D3FD;" d="M172.655 144.535c0 3.661 -2.995 6.656 -6.656 6.656s-6.656 -2.995 -6.656 -6.656c0 -3.661 2.995 -6.656 6.656 -6.656S172.655 140.875 172.655 144.535"/></g><path d="M32.888 194.452h-19.967c-1.997 0 -3.328 -1.331 -3.328 -3.328v-26.622c0 -1.997 1.331 -3.328 3.328 -3.328h19.967c1.997 0 3.328 1.331 3.328 3.328v26.622C36.216 193.121 34.884 194.452 32.888 194.452zM16.249 187.797H29.56v-19.967H16.249V187.797z"/><path d="M185.966 194.452h-19.967c-1.997 0 -3.328 -1.331 -3.328 -3.328v-26.622c0 -1.997 1.331 -3.328 3.328 -3.328h19.967c1.997 0 3.328 1.331 3.328 3.328v26.622C189.294 193.121 187.963 194.452 185.966 194.452zM169.327 187.797h13.311v-19.967H169.327V187.797z"/><path d="M191.291 167.83H7.597C3.271 167.83 -0.39 164.169 -0.39 159.843v-30.948c0 -4.326 3.661 -7.987 7.987 -7.987h184.027c4.326 0 7.987 3.661 7.987 7.987v30.948C199.277 164.169 195.617 167.83 191.291 167.83zM7.597 127.896c-0.666 0 -1.331 0.666 -1.331 1.331v30.948c0 0.333 0.666 0.998 1.331 0.998h184.027c0.666 0 1.331 -0.666 1.331 -1.331v-30.948c0 -0.666 -0.666 -1.331 -1.331 -1.331H7.597V127.896z"/><path d="M32.888 154.519c-5.657 0 -9.983 -4.326 -9.983 -9.983c0 -5.657 4.326 -9.983 9.983 -9.983s9.983 4.326 9.983 9.983C42.871 150.192 38.545 154.519 32.888 154.519zM32.888 141.207c-1.997 0 -3.328 1.331 -3.328 3.328c0 1.997 1.331 3.328 3.328 3.328s3.328 -1.331 3.328 -3.328C36.216 142.539 34.884 141.207 32.888 141.207z"/><path d="M59.51 154.519c-5.657 0 -9.983 -4.326 -9.983 -9.983c0 -5.657 4.326 -9.983 9.983 -9.983c5.657 0 9.983 4.326 9.983 9.983C69.494 150.192 65.168 154.519 59.51 154.519zM59.51 141.207c-1.997 0 -3.328 1.331 -3.328 3.328c0 1.997 1.331 3.328 3.328 3.328c1.997 0 3.328 -1.331 3.328 -3.328C62.838 142.539 61.507 141.207 59.51 141.207z"/><path d="M86.133 154.519c-5.657 0 -9.983 -4.326 -9.983 -9.983c0 -5.657 4.326 -9.983 9.983 -9.983c5.657 0 9.983 4.326 9.983 9.983C96.116 150.192 91.79 154.519 86.133 154.519zM86.133 141.207c-1.997 0 -3.328 1.331 -3.328 3.328c0 1.997 1.331 3.328 3.328 3.328c1.997 0 3.328 -1.331 3.328 -3.328C89.46 142.539 88.129 141.207 86.133 141.207z"/><path d="M112.755 154.519c-5.657 0 -9.983 -4.326 -9.983 -9.983c0 -5.657 4.326 -9.983 9.983 -9.983c5.657 0 9.983 4.326 9.983 9.983C122.738 150.192 118.412 154.519 112.755 154.519zM112.755 141.207c-1.997 0 -3.328 1.331 -3.328 3.328c0 1.997 1.331 3.328 3.328 3.328c1.997 0 3.328 -1.331 3.328 -3.328C116.083 142.539 114.751 141.207 112.755 141.207z"/><path d="M139.377 154.519c-5.657 0 -9.983 -4.326 -9.983 -9.983c0 -5.657 4.326 -9.983 9.983 -9.983s9.983 4.326 9.983 9.983C149.361 150.192 145.035 154.519 139.377 154.519zM139.377 141.207c-1.997 0 -3.328 1.331 -3.328 3.328c0 1.997 1.331 3.328 3.328 3.328s3.328 -1.331 3.328 -3.328C142.705 142.539 141.374 141.207 139.377 141.207z"/><path d="M166 154.519c-5.657 0 -9.983 -4.326 -9.983 -9.983c0 -5.657 4.326 -9.983 9.983 -9.983s9.983 4.326 9.983 9.983C175.983 150.192 171.657 154.519 166 154.519zM166 141.207c-1.997 0 -3.328 1.331 -3.328 3.328c0 1.997 1.331 3.328 3.328 3.328s3.328 -1.331 3.328 -3.328C169.327 142.539 167.996 141.207 166 141.207z"/><path d="M189.294 127.896H9.593c-1.997 0 -3.328 -1.331 -3.328 -3.328v-14.975c0 -4.659 3.661 -8.319 8.319 -8.319h169.717c4.659 0 8.319 3.661 8.319 8.319v14.975C192.622 126.565 191.291 127.896 189.294 127.896zM12.921 121.241h173.045v-11.647c0 -0.998 -0.666 -1.664 -1.664 -1.664H14.585c-0.998 0 -1.664 0.666 -1.664 1.664V121.241z"/><path d="M195.95 194.452H2.938c-1.997 0 -3.328 -1.331 -3.328 -3.328c0 -1.997 1.331 -3.328 3.328 -3.328h193.012c1.997 0 3.328 1.331 3.328 3.328C199.277 193.121 197.946 194.452 195.95 194.452z"/><path d="M182.638 107.93h-19.967c-1.997 0 -3.328 -1.331 -3.328 -3.328V31.39H39.543v73.211c0 1.997 -1.331 3.328 -3.328 3.328h-19.967c-1.997 0 -3.328 -1.331 -3.328 -3.328V8.096c0 -1.997 1.331 -3.328 3.328 -3.328h166.39c1.997 0 3.328 1.331 3.328 3.328v96.506C185.966 106.599 184.635 107.93 182.638 107.93zM166 101.274H179.311v-89.85H19.577v89.85h13.311V28.063c0 -1.997 1.331 -3.328 3.328 -3.328h126.456c1.997 0 3.328 1.331 3.328 3.328V101.274z"/><path d="M122.738 107.93H76.149c-1.997 0 -3.328 -1.331 -3.328 -3.328V87.963c0 -1.997 1.331 -3.328 3.328 -3.328h46.589c1.997 0 3.328 1.331 3.328 3.328v16.639C126.066 106.599 124.735 107.93 122.738 107.93zM79.477 101.274h39.933v-9.983H79.477V101.274z"/><path d="M122.738 64.668H76.149c-1.997 0 -3.328 -1.331 -3.328 -3.328V28.063c0 -1.997 1.331 -3.328 3.328 -3.328h46.589c1.997 0 3.328 1.331 3.328 3.328v33.278C126.066 63.337 124.735 64.668 122.738 64.668zM79.477 58.013h39.933V31.39H79.477V58.013z"/><path d="M136.05 51.357h-13.311c-1.997 0 -3.328 -1.331 -3.328 -3.328c0 -1.997 1.331 -3.328 3.328 -3.328h13.311c1.997 0 3.328 1.331 3.328 3.328C139.377 50.026 138.046 51.357 136.05 51.357z"/><path d="M136.05 58.013c-1.997 0 -3.328 -1.331 -3.328 -3.328v-13.311c0 -1.997 1.331 -3.328 3.328 -3.328c1.997 0 3.328 1.331 3.328 3.328v13.311C139.377 56.682 138.046 58.013 136.05 58.013z"/><path d="M76.149 51.357h-13.311c-1.997 0 -3.328 -1.331 -3.328 -3.328c0 -1.997 1.331 -3.328 3.328 -3.328h13.311c1.997 0 3.328 1.331 3.328 3.328C79.477 50.026 78.146 51.357 76.149 51.357z"/><path d="M62.838 58.013c-1.997 0 -3.328 -1.331 -3.328 -3.328v-13.311c0 -1.997 1.331 -3.328 3.328 -3.328c1.997 0 3.328 1.331 3.328 3.328v13.311C66.166 56.682 64.835 58.013 62.838 58.013z"/><path d="M109.427 77.979h-19.967c-1.997 0 -3.328 -1.331 -3.328 -3.328v-13.311c0 -1.997 1.331 -3.328 3.328 -3.328h19.967c1.997 0 3.328 1.331 3.328 3.328v13.311C112.755 76.648 111.424 77.979 109.427 77.979zM92.788 71.324h13.311v-6.656h-13.311V71.324z"/></g></svg>