<svg version="1.1" id="Layer_1" xmlns="http://www.w3.org/2000/svg" xmlns:xlink="http://www.w3.org/1999/xlink" x="0px" y="0px" viewBox="0 0 200 200" style="enable-background:new 0 0 512 512;" xml:space="preserve" width="200" height="200"><path style="fill:#FF7F4F;" cx="256" cy="256" r="256" d="M200 100A100 100 0 0 1 100 200A100 100 0 0 1 0 100A100 100 0 0 1 200 100z"/><path style="fill:#D35933;" d="M196.644 125.762L127.584 56.702l-7.826 14.483l-25.996 -25.996l-14.748 16.99l4.711 4.711l-18.096 6.143l34.493 34.493l-16.853 31.187l16.782 16.782l-0.049 3.869l34.519 34.519C164.838 182.729 188.256 157.309 196.644 125.762z"/><path style="fill:#386895;" points="210.285,377.489 256,407.966 301.715,377.489 301.715,164.155 210.285,164.155 " d="M82.143 147.457L100 159.362L117.857 147.457L117.857 64.123L82.143 64.123Z"/><path style="fill:#273B7A;" points="255.426,164.155 255.426,407.583 256,407.966 301.715,377.489 301.715,164.155 " d="M99.776 64.123L99.776 159.212L100 159.362L117.857 147.457L117.857 64.123Z"/><path style="fill:#4A7EA8;" d="M106.239 45.188v15.22h-12.478v-15.22c-13.195 1.964 -24.05 11.595 -28.723 22.913c-1.38 3.344 1.062 7.021 4.679 7.021h60.566c3.618 0 6.06 -3.678 4.679 -7.021C130.289 56.782 119.434 47.151 106.239 45.188z"/><path style="fill:#386895;" d="M134.962 68.1c-4.673 -11.318 -15.529 -20.95 -28.723 -22.913v15.221h-6.463v14.714h30.507C133.9 75.123 136.343 71.445 134.962 68.1z"/><g><path style="fill:#273B7A;" points="301.715,263.646 210.285,307.821 210.285,320.126 301.715,275.952 	" d="M117.857 102.987L82.143 120.243L82.143 125.049L117.857 107.794Z"/><path style="fill:#273B7A;" points="301.715,229.069 210.285,273.244 210.285,285.549 301.715,241.376 	" d="M117.857 89.48L82.143 106.736L82.143 111.543L117.857 94.288Z"/><path style="fill:#273B7A;" points="210.285,354.702 301.715,310.529 301.715,298.222 210.285,342.395 	" d="M82.143 138.555L117.857 121.3L117.857 116.493L82.143 133.748Z"/><path style="fill:#273B7A;" points="210.285,377.489 220.539,384.324 301.715,345.104 301.715,332.798 210.285,376.972 	" d="M82.143 147.457L86.148 150.127L117.857 134.806L117.857 129.999L82.143 147.255Z"/></g><g><path style="fill:#121149;" points="301.715,263.646 255.426,286.01 255.426,298.317 301.715,275.952 	" d="M117.857 102.987L99.776 111.723L99.776 116.53L117.857 107.794Z"/><path style="fill:#121149;" points="301.715,229.069 255.426,251.433 255.426,263.74 301.715,241.376 	" d="M117.857 89.48L99.776 98.216L99.776 103.023L117.857 94.288Z"/><path style="fill:#121149;" points="301.715,298.222 255.426,320.586 255.426,332.893 301.715,310.529 	" d="M117.857 116.493L99.776 125.229L99.776 130.036L117.857 121.3Z"/><path style="fill:#121149;" points="301.715,332.798 255.426,355.163 255.426,367.469 301.715,345.105 	" d="M117.857 129.999L99.776 138.736L99.776 143.543L117.857 134.807Z"/></g></svg>