<svg version="1.1" id="Layer_1" xmlns="http://www.w3.org/2000/svg" xmlns:xlink="http://www.w3.org/1999/xlink" x="0px" y="0px" viewBox="0 0 150 150" style="enable-background:new 0 0 512 512;" xml:space="preserve" width="150" height="150"><g><path style="fill:#68AEF4;" d="M139.175 98.566c-7.515 -7.515 -18.159 -9.992 -27.739 -7.434l-5.987 -5.987l-20.306 11.28l29.215 17.935l14.288 -3.756l17.44 17.44C149.449 118.031 147.148 106.539 139.175 98.566z"/><path style="fill:#68AEF4;" d="M58.869 38.564c2.558 -9.579 0.081 -20.224 -7.434 -27.739C43.461 2.852 31.968 0.551 21.958 3.915l17.44 17.44l-3.756 14.288l7.434 18.714l37.56 37.56l11.28 -20.305L58.869 38.564z"/></g><path style="fill:#3891E9;" d="M122.599 140.653l-12.005 -12.005l3.763 -14.29l-19.062 -19.062l10.153 -10.153l-13.533 -13.533l-13.537 13.537L45.332 52.101l3.386 -3.385l-13.076 -13.073L21.352 39.406L9.347 27.401L3.911 21.966C0.552 31.972 2.851 43.462 10.824 51.435c7.515 7.515 18.159 9.992 27.739 7.434l52.567 52.568c-2.558 9.579 -0.081 20.224 7.434 27.739c7.973 7.973 19.463 10.272 29.469 6.913L122.599 140.653z"/><path style="fill:#554F4E;" points="77.497,434.504 77.497,480.678 8.238,503.765 " d="M22.704 127.296L22.704 140.824L2.413 147.587Z"/><path style="fill:#7F7774;" points="31.324,434.504 71.726,428.733 65.954,469.135 8.238,503.765 " d="M9.177 127.296L21.013 125.605L19.322 137.442L2.413 147.587Z"/><path style="fill:#FFAB97;" points="135.213,399.875 146.758,457.592 77.497,480.678 65.954,469.135 " d="M39.613 117.151L42.996 134.06L22.704 140.824L19.322 137.442Z"/><path style="fill:#FFCDC1;" points="54.411,365.245 149.405,362.597 123.67,434.504 65.954,469.135 31.324,434.504 " d="M15.941 107.005L43.771 106.23L36.231 127.296L19.322 137.442L9.177 127.296Z"/><path style="fill:#F5AC51;" points="401.894,125.499 417.285,187.063 146.758,457.592 123.67,434.504 " d="M117.742 36.767L122.251 54.804L42.996 134.06L36.231 127.296Z"/><path style="fill:#E26142;" d="M113.234 36.767l18.036 9.018l13.527 -13.527c3.72 -3.72 3.72 -9.807 0 -13.527l-6.763 -6.763L113.234 36.767z"/><path style="fill:#FFEAB2;" points="54.411,365.245 100.584,411.418 137.523,402.183 408.051,131.655 324.94,94.716 " d="M15.941 107.005L29.468 120.533L40.29 117.827L119.546 38.571L95.197 27.749Z"/><path x="242.608" y="68.549" transform="matrix(0.7071 0.7071 -0.7071 0.7071 271.1149 -102.2073)" style="fill:#FFD159;" width="32.649" height="415.225" d="M71.077 20.083H80.642V141.731H71.077V20.083z"/><path style="fill:#F1866D;" d="M131.27 5.204l6.763 6.763c3.72 3.72 3.72 9.807 0 13.527l-18.036 18.036l-15.782 -24.8l13.527 -13.527C121.462 1.484 127.55 1.484 131.27 5.204z"/><path x="404.819" y="138.364" transform="matrix(0.7071 0.7071 -0.7071 0.7071 236.579 -250.8926)" style="fill:#D8D1D0;" width="32.649" height="43.532" d="M118.599 40.536H128.164V53.29H118.599V40.536z"/><path x="325.984" y="92.193" transform="matrix(0.7071 0.7071 -0.7071 0.7071 190.4038 -231.7585)" style="fill:#FFFFFF;" width="97.95" height="43.532" d="M95.503 27.01H124.199V39.763H95.503V27.01z"/><path d="M140.868 96.875c-7.498 -7.498 -18.376 -10.645 -28.691 -8.386l-10.114 -10.114l30.896 -30.896c0.003 -0.003 13.529 -13.529 13.529 -13.529c2.251 -2.251 3.49 -5.254 3.49 -8.455c0 -3.202 -1.24 -6.205 -3.49 -8.456l-13.527 -13.527c-2.251 -2.251 -5.254 -3.491 -8.456 -3.491c-3.202 0 -6.205 1.24 -8.456 3.491L71.626 47.936l-10.114 -10.114c2.26 -10.314 -0.888 -21.193 -8.386 -28.69c-8.408 -8.408 -20.64 -11.277 -31.922 -7.487c-0.785 0.264 -1.378 0.915 -1.568 1.721c-0.19 0.807 0.052 1.654 0.638 2.239l16.468 16.468l-3.058 11.608l-11.609 3.054l-16.468 -16.467c-0.586 -0.586 -1.433 -0.827 -2.239 -0.638c-0.806 0.189 -1.458 0.782 -1.722 1.567c-3.793 11.284 -0.924 23.518 7.486 31.928c7.498 7.498 18.377 10.646 28.69 8.386l5.038 5.037c0.467 0.467 1.08 0.701 1.692 0.701c0.612 0 1.225 -0.233 1.692 -0.701c0.935 -0.935 0.935 -2.45 0 -3.384l-5.987 -5.987c-0.604 -0.604 -1.483 -0.841 -2.309 -0.62c-9.062 2.42 -18.807 -0.191 -25.431 -6.816c-6.157 -6.157 -8.803 -14.736 -7.326 -23.123l14.472 14.472c0.602 0.602 1.478 0.838 2.301 0.622l14.287 -3.759c0.834 -0.219 1.486 -0.871 1.705 -1.705l3.599 -13.662l9.103 -9.103c5.942 6.583 8.204 15.831 5.9 24.462c-0.221 0.825 0.016 1.705 0.62 2.309l11.064 11.064L14.249 105.313c-0.063 0.063 -0.121 0.129 -0.176 0.198c-0.014 0.017 -0.026 0.036 -0.039 0.053c-0.04 0.053 -0.079 0.107 -0.114 0.163c-0.013 0.021 -0.025 0.043 -0.038 0.064c-0.033 0.055 -0.063 0.11 -0.09 0.167c-0.011 0.023 -0.022 0.047 -0.033 0.07c-0.026 0.058 -0.05 0.117 -0.071 0.177c-0.005 0.015 -0.012 0.029 -0.017 0.043L0.143 146.83c-0.287 0.86 -0.063 1.808 0.578 2.449c0.456 0.456 1.068 0.701 1.692 0.701c0.253 0 0.509 -0.04 0.756 -0.123l40.582 -13.527c0.015 -0.005 0.029 -0.012 0.044 -0.018c0.059 -0.021 0.118 -0.044 0.175 -0.07c0.024 -0.011 0.047 -0.021 0.071 -0.033c0.057 -0.028 0.112 -0.058 0.166 -0.09c0.022 -0.013 0.043 -0.025 0.065 -0.038c0.055 -0.035 0.11 -0.074 0.162 -0.114c0.018 -0.013 0.036 -0.025 0.054 -0.04c0.068 -0.054 0.135 -0.113 0.198 -0.176L98.68 81.759l11.064 11.064c0.605 0.604 1.485 0.841 2.309 0.62c9.063 -2.419 18.807 0.192 25.431 6.816c6.155 6.155 8.802 14.732 7.327 23.116l-14.472 -14.472c-0.602 -0.602 -1.479 -0.839 -2.302 -0.622l-14.287 3.764c-0.834 0.219 -1.485 0.871 -1.704 1.705l-3.594 13.662l-9.106 9.106c-5.944 -6.584 -8.207 -15.832 -5.902 -24.464c0.22 -0.825 -0.016 -1.705 -0.62 -2.309l-5.988 -5.988c-0.935 -0.935 -2.45 -0.935 -3.384 0c-0.935 0.935 -0.935 2.45 0 3.384l5.038 5.038c-2.26 10.314 0.888 21.193 8.385 28.69c0.196 0.196 0.394 0.388 0.594 0.578c0.05 0.06 0.102 0.118 0.158 0.175c0.095 0.095 0.197 0.178 0.303 0.253c5.815 5.306 13.243 8.126 20.87 8.126c3.336 0 6.711 -0.54 10.004 -1.646c0.785 -0.264 1.378 -0.915 1.567 -1.722c0.189 -0.806 -0.052 -1.654 -0.638 -2.239l-16.468 -16.468l3.054 -11.609l11.609 -3.058l16.468 16.468c0.586 0.586 1.434 0.828 2.239 0.638c0.806 -0.19 1.458 -0.782 1.721 -1.568C152.145 117.514 149.276 105.282 140.868 96.875zM26.626 5.189c7.261 -1.277 14.665 0.539 20.516 5.045l-7.736 7.736L26.626 5.189zM42.996 130.676l-23.671 -23.671l75.872 -75.872l10.143 10.143L34.54 112.077c-0.935 0.935 -0.935 2.45 0 3.384c0.467 0.467 1.08 0.701 1.692 0.701s1.225 -0.233 1.692 -0.701l70.8 -70.8l5.072 5.071c0.467 0.467 1.08 0.701 1.692 0.701s1.225 -0.233 1.692 -0.701c0.935 -0.935 0.935 -2.45 0 -3.384l-6.763 -6.763c-0.001 -0.001 -11.836 -11.836 -11.836 -11.836l5.634 -5.634l23.67 23.67L42.996 130.676zM23.351 138.086L11.915 126.65l5.072 -15.215l21.579 21.579L23.351 138.086zM119.435 6.896c1.347 -1.347 3.148 -2.089 5.072 -2.089c1.923 0 3.725 0.742 5.072 2.089l13.527 13.527c2.797 2.797 2.797 7.347 0 10.143l-11.835 11.835l-23.67 -23.67L119.435 6.896zM10.223 131.726l8.052 8.052l-12.077 4.026L10.223 131.726zM123.381 144.811c-7.261 1.278 -14.666 -0.536 -20.519 -5.042l7.738 -7.738L123.381 144.811z"/><path d="M53.793 43.641c-0.935 -0.935 -2.45 -0.935 -3.384 0l-6.768 6.768c-0.935 0.935 -0.935 2.45 0 3.384c0.467 0.467 1.08 0.701 1.692 0.701s1.225 -0.233 1.692 -0.701l6.768 -6.768C54.728 46.091 54.728 44.575 53.793 43.641z"/><path d="M99.591 106.36l6.768 -6.768c0.935 -0.935 0.935 -2.45 0 -3.384c-0.935 -0.935 -2.45 -0.935 -3.384 0l-6.768 6.768c-0.935 0.935 -0.935 2.45 0 3.384c0.467 0.467 1.08 0.701 1.692 0.701C98.512 107.061 99.124 106.827 99.591 106.36z"/></svg>